<?xml version="1.0" encoding="UTF-8"?>
<svg width="56px" height="56px" viewBox="0 0 56 56" version="1.1" xmlns="http://www.w3.org/2000/svg" xmlns:xlink="http://www.w3.org/1999/xlink">
    <!-- Generator: Sketch 47 (45396) - http://www.bohemiancoding.com/sketch -->
    <title>Group 4</title>
    <desc>Created with Sketch.</desc>
    <defs></defs>
    <g id="Page-1" stroke="none" stroke-width="1" fill="none" fill-rule="evenodd">
        <g id="base" transform="translate(-150.000000, -22.000000)">
            <g id="Group-4" transform="translate(150.000000, 22.000000)">
                <path d="M55,28.5 C55,43.1355749 43.135376,55 28.4998719,55 C13.8643678,55 2,43.1355749 2,28.5 C2,13.8644251 13.8643678,2 28.4998719,2 C43.135376,2 55,13.8644251 55,28.5" id="Fill-1" fill="#E0E0DB"></path>
                <path d="M44.0500401,7 C47.2290111,11.3743141 49.1054656,16.7564875 49.1054656,22.5777078 C49.1054656,37.2285955 37.2286905,49.1056906 22.5778811,49.1056906 C16.7566918,49.1056906 11.3745472,47.2289695 7,44.0499816 C11.8220548,50.6851829 19.6427953,55 28.472159,55 C43.1229684,55 55,43.1231614 55,28.4722737 C55,19.6426064 50.6849495,11.8220806 44.0500401,7" id="Fill-2" fill="#BDBCB9"></path>
                <path d="M28,3.04329184 C14.238824,3.04329184 3.04327793,14.2388891 3.04327793,28.000128 C3.04327793,41.7613669 14.238824,52.9569641 28,52.9569641 C41.761176,52.9569641 52.956978,41.7613669 52.956978,28.000128 C52.956978,14.2388891 41.761176,3.04329184 28,3.04329184 Z M28,56 C12.5609127,56 0,43.4392858 0,28.000128 C0,12.5609701 12.5609127,0 28,0 C43.4393432,0 56,12.5609701 56,28.000128 C56,43.4392858 43.4393432,56 28,56 L28,56 Z" id="Fill-3" fill="#602929"></path>
                <path d="M43,16.5 C43,18.9852199 40.9852199,21 38.5,21 C36.0147801,21 34,18.9852199 34,16.5 C34,14.0145097 36.0147801,12 38.5,12 C40.9852199,12 43,14.0145097 43,16.5" id="Fill-4" fill="#AAABA8"></path>
                <path d="M17,22.9998775 C17,24.6568663 15.6568115,26 14,26 C12.3429435,26 11,24.6568663 11,22.9998775 C11,21.3431337 12.3429435,20 14,20 C15.6568115,20 17,21.3431337 17,22.9998775" id="Fill-5" fill="#AAABA8"></path>
                <path d="M35,39.0001168 C35,40.1046763 34.1044428,41 32.9998832,41 C31.8955572,41 31,40.1046763 31,39.0001168 C31,37.8955572 31.8955572,37 32.9998832,37 C34.1044428,37 35,37.8955572 35,39.0001168" id="Fill-6" fill="#AAABA8"></path>
                <path d="M38.5,13.2 C36.6804134,13.2 35.2,14.6804134 35.2,16.5 C35.2,18.3195866 36.6804134,19.8 38.5,19.8 C40.3195866,19.8 41.8,18.3195866 41.8,16.5 C41.8,14.6804134 40.3195866,13.2 38.5,13.2 Z M38.5,22 C35.4672675,22 33,19.5327325 33,16.5 C33,13.4672675 35.4672675,11 38.5,11 C41.5327325,11 44,13.4672675 44,16.5 C44,19.5327325 41.5327325,22 38.5,22 L38.5,22 Z" id="Fill-7" fill="#602929"></path>
                <path d="M14.0001219,21.0290756 C12.9134132,21.0290756 12.0290756,21.9131694 12.0290756,22.9998781 C12.0290756,24.0865868 12.9134132,24.9709244 14.0001219,24.9709244 C15.0868306,24.9709244 15.9709244,24.0865868 15.9709244,22.9998781 C15.9709244,21.9131694 15.0868306,21.0290756 14.0001219,21.0290756 Z M14.0001219,27 C11.7945201,27 10,25.2054799 10,22.9998781 C10,20.7942763 11.7945201,19 14.0001219,19 C16.2057237,19 18,20.7942763 18,22.9998781 C18,25.2054799 16.2057237,27 14.0001219,27 L14.0001219,27 Z" id="Fill-8" fill="#602929"></path>
                <path d="M33.4998625,38.2888688 C32.8320695,38.2888688 32.2888688,38.8323445 32.2888688,39.5001375 C32.2888688,40.1679305 32.8320695,40.7111312 33.4998625,40.7111312 C34.1676555,40.7111312 34.7111312,40.1679305 34.7111312,39.5001375 C34.7111312,38.8323445 34.1676555,38.2888688 33.4998625,38.2888688 Z M33.4998625,43 C31.5699187,43 30,41.4300813 30,39.5001375 C30,37.5701937 31.5699187,36 33.4998625,36 C35.4298063,36 37,37.5701937 37,39.5001375 C37,41.4300813 35.4298063,43 33.4998625,43 L33.4998625,43 Z" id="Fill-9" fill="#602929"></path>
            </g>
        </g>
    </g>
</svg>